<svg width="30" height="19" viewBox="0 0 30 19" fill="none" xmlns="http://www.w3.org/2000/svg">
    <path d="M24.5832 0.180715C25.24 0.556051 25.4682 1.39276 25.0929 2.04959L22.9956 5.72005C26.8307 8.12432 29.5191 12.2116 29.9932 16.9871C30.0732 17.7931 29.4401 18.4922 28.6301 18.4922H1.36989C0.559893 18.4922 -0.0731786 17.7931 0.00683072 16.9871C0.460144 12.4212 2.93753 8.48445 6.50617 6.04629L4.22236 2.04959C3.84702 1.39276 4.07522 0.556051 4.73206 0.180715C5.3889 -0.194622 6.22564 0.0335774 6.60098 0.690416L8.8993 4.71247C10.7684 3.88379 12.8339 3.42467 15 3.42467C16.9549 3.42467 18.8279 3.79862 20.5484 4.48068L22.7143 0.690416C23.0896 0.0335774 23.9264 -0.194622 24.5832 0.180715ZM8.83609 10.9584C8.07961 10.9584 7.46631 11.5717 7.46631 12.3282C7.46631 13.0847 8.07961 13.698 8.83609 13.698C9.59264 13.698 10.2059 13.0847 10.2059 12.3282C10.2059 11.5717 9.59264 10.9584 8.83609 10.9584ZM21.1641 10.9584C20.4076 10.9584 19.7943 11.5717 19.7943 12.3282C19.7943 13.0847 20.4076 13.698 21.1641 13.698C21.9206 13.698 22.5338 13.0847 22.5338 12.3282C22.5338 11.5717 21.9206 10.9584 21.1641 10.9584Z"
          fill="#84B969"/>
</svg>
