<svg width="28" height="28" viewBox="0 0 28 28" fill="none" xmlns="http://www.w3.org/2000/svg">
    <path d="M21.3768 14.3551C21.3473 10.9371 24.1667 9.29353 24.3001 9.21404C22.7115 6.88969 20.2358 6.57048 19.3511 6.5333C17.2472 6.3205 15.2484 7.77302 14.1804 7.77302C13.1124 7.77302 11.4661 6.56405 9.71992 6.5961C7.42498 6.62818 5.31338 7.93072 4.13128 9.98198C1.74786 14.1153 3.52229 20.2396 5.84285 23.595C6.9775 25.236 8.3314 27.0809 10.1097 27.0142C11.8225 26.9463 12.4687 25.9066 14.5381 25.9066C16.6048 25.9066 17.1882 27.0142 18.9973 26.9796C20.8358 26.9463 22.0063 25.3053 23.1307 23.6591C24.4333 21.755 24.9641 19.9127 25 19.8165C24.9603 19.805 21.4115 18.4447 21.3768 14.3551ZM17.9728 4.31535C18.9178 3.17181 19.5537 1.58207 19.378 0C18.019 0.0551328 16.3741 0.905149 15.3971 2.04869C14.5227 3.06021 13.7573 4.67819 13.965 6.22945C15.4792 6.34485 17.0305 5.45639 17.9728 4.31535Z"
          fill="white"/>
</svg>
