<?xml version="1.0" encoding="utf-8"?>
<!-- Generator: Adobe Illustrator 25.0.0, SVG Export Plug-In . SVG Version: 6.00 Build 0)  -->
<svg version="1.1" id="图层_1" xmlns="http://www.w3.org/2000/svg" xmlns:xlink="http://www.w3.org/1999/xlink" x="0px" y="0px"
	 viewBox="0 0 400 400" style="enable-background:new 0 0 400 400;" xml:space="preserve">
<g>
	<circle style="fill:#3e3d41;" cx="201.5" cy="198.5" r="137.5"/>	
</g>
<g>
	<g>
		<path style="fill:#00FFCC;" d="M131.68,210.32c41.38,0,82.75,0,124.13,0c5.89,0,11.78,0,17.67,0c16.59,0,16.62-25.78,0-25.78
			c-41.38,0-82.75,0-124.13,0c-5.89,0-11.78,0-17.67,0C115.09,184.54,115.06,210.32,131.68,210.32L131.68,210.32z"/>
	</g>
</g>
<g style="display:none;">
	<g style="display:inline;">
		<path style="fill:#00FFCC;" d="M187.54,124.38c0,44.63,0,89.27,0,133.9c0,6.21,0,12.43,0,18.64c0,16.59,25.78,16.62,25.78,0
			c0-44.63,0-89.27,0-133.9c0-6.21,0-12.43,0-18.64C213.32,107.79,187.54,107.76,187.54,124.38L187.54,124.38z"/>
	</g>
</g>
</svg>
