<?xml version="1.0" encoding="utf-8"?>
<svg x="0" y="0"  xmlns="http://www.w3.org/2000/svg" xmlns:xlink="http://www.w3.org/1999/xlink" viewBox="0 0 512 512" class="first-transaction-shadow relative z-10 aspect-square w-[1.17rem]"><path d="m155 355.1-20.3 1-39.3 113.1c-1.3 3.6 1.7 7.3 5.5 6.9l55.2-5.8c1.5-.2 3.1.4 4.2 1.5l39.7 38.8c2.7 2.7 7.3 1.6 8.6-2L248 394.7l-11.7-11.3-81.3-28.3z" style="fill: rgb(255, 186, 87);"></path><path d="m248 394.7 8-23-113.3-38.5-8 22.9c32.2 23 71.2 37 113.3 38.6z" style="fill: rgb(255, 186, 87);"></path><path d="m357 355.1 20.3 1 39.4 113.1c1.3 3.6-1.7 7.3-5.5 6.9l-55.2-5.8c-1.5-.2-3.1.4-4.2 1.5l-39.7 38.8c-2.7 2.7-7.3 1.6-8.6-2L264 394.7l11.7-11.3 81.3-28.3z" style="fill: rgb(255, 186, 87);"></path><path d="m264 394.7-8-23 113.3-38.5 8 22.9c-32.2 23-71.2 37-113.3 38.6z" style="fill: rgb(255, 186, 87);"></path><path d="M256 360.1c-185.9 0-185.8-180.5-185.6-183.6C75.3 78.2 156.5 0 256 0s180.7 78.2 185.6 176.5c.2 3.1.3 183.6-185.6 183.6z" style="fill: rgb(255, 226, 122);"></path><path d="M256 353c-99.5 0-180.7-78.2-185.6-176.5-.2 3.1-.2 6.2-.2 9.4 0 102.6 83.2 185.9 185.9 185.9S442 288.6 442 185.9c0-3.1-.1-6.3-.2-9.4C436.7 274.8 355.5 353 256 353z" style="fill: rgb(249, 207, 88);"></path><path d="M256 320.1c-146.1 0-146.3-143.7-146.1-146.8 4.8-76.5 68.4-137 146.1-137s141.3 60.5 146.1 137c.2 3.1 0 146.8-146.1 146.8z" style="fill: rgb(255, 186, 87);"></path><path d="M256 313.5c-77.7 0-141.3-60.6-146.1-137-.2 3.1-.3 6.2-.3 9.4 0 80.9 65.6 146.4 146.4 146.4s146.4-65.6 146.4-146.4c0-3.1-.1-6.3-.3-9.4-4.8 76.5-68.4 137-146.1 137z" style="fill: rgb(255, 186, 87);"></path><path d="M264.4 272.8c-10.2 0-18.4-8.2-18.4-18.4V151.3s-11 11-24.2 4.4c-10.3-5.2-10.3-18.5-10.3-18.5l22.7-38.3c3.3-5.6 9.3-9 15.8-9h14.3c10.2 0 18.4 8.2 18.4 18.4v146.1c.1 10.2-8.2 18.4-18.3 18.4z" style="fill: rgb(255, 226, 122);"></path><path d="M243.4 136.8c-4.9 8.2-15.3 11.8-23.9 7.7-3.5-1.7-6.2-4.2-8-7.3-5.1 8.6-2.3 19.8 6.2 25 8.8 5.4 20.5 2.2 25.8-6.7l2.5-4.3v-13.8c-.1-1.3-1.9-1.8-2.6-.6zM264.4 263.1c-10.2 0-18.4-8.2-18.4-18.4v18.7c0 10.2 8.2 18.4 18.4 18.4s18.4-8.2 18.4-18.4v-18.7c0 10.1-8.3 18.4-18.4 18.4z" style="fill: rgb(249, 207, 88);"></path></svg>