<?xml version="1.0" encoding="utf-8"?>
<svg x="0" y="0"  xmlns="http://www.w3.org/2000/svg" xmlns:xlink="http://www.w3.org/1999/xlink" viewBox="0 0 512 512" class="uncommon-shadow relative z-10 aspect-square w-[1.17rem]"><path d="M425.13,337.78l-17.75,17.39q-4.75,4.65-9.55,9.24c-6.2,5.95-12.37,11.94-18.64,17.81-6.69,6.25-13.52,12.35-20.2,18.6-3.1,2.91-5.9,6.12-9,9-9.08,8.52-18.29,16.9-27.33,25.46-7.42,7-14.57,14.34-22,21.37-9.25,8.75-18.64,17.35-28,26-3,2.73-5.75,5.73-9.05,8a14.72,14.72,0,0,1-18.22-1.75c-7.4-7-14.63-14.28-22-21.35-3.56-3.39-7.37-6.53-11-9.88q-8.9-8.3-17.64-16.73c-6.93-6.7-13.74-13.53-20.69-20.2-3.55-3.41-7.41-6.5-11-9.9-7.25-6.93-14.3-14.06-21.59-20.95-10.53-9.95-21.22-19.74-31.8-29.64q-7.31-6.83-14.46-13.83c-2.66-2.6-5.17-5.36-7.75-8.06.71-1.13,1.87-.85,2.89-.85q53.28,0,106.55,0a3.91,3.91,0,0,1,4.11,2.85c3.46,8.79,7.1,17.5,10,26.48,3.7,11.3,8.38,22.24,12.43,33.4,3.52,9.72,6.62,19.62,10.47,29.21,5.65,14.08,10.33,28.49,15.55,42.72,1.23,3.33,3,6.42,4.18,9.77a23.27,23.27,0,0,1,1.23,4.77c-.15-1.65-.62-3.06-.61-4.54a8,8,0,0,0,.48-5,20.25,20.25,0,0,1-.18-4.87q0-63.5,0-127c0-2.31-.19-4.65.64-6.88a2.8,2.8,0,0,1,.6-1c1.81-1.26,3.89-1,5.9-1q25.71,0,51.4,0,53,0,106,0C421.23,336.39,423.53,335.72,425.13,337.78Z" transform="translate(-6.93 -21.58)" style="fill:#919191"/><path d="M256.06,483v8.09l-.42.12c-.33-.74-.7-1.46-1-2.21q-9.45-25.73-18.87-51.45l-15.48-42.21c-4.86-13.25-9.67-26.52-14.58-39.76-1.88-5.06-4-10-5.93-15.07-.82-2.17-2.45-2.14-4.24-2.14H87.51l-.43-.56c.41-1.32,1.57-1.28,2.61-1.37,1.44-.13,2.9-.08,4.35-.08q47.64,0,95.27,0c1.49,0,3.44.68,4.3-.9.95-1.74-.84-3-1.72-4.29q-9-13.2-18.26-26.16c-5.74-8-11.14-16.27-17-24.16-4.52-6.05-8.56-12.42-13.05-18.47-10-13.52-19.34-27.54-29.12-41.23-6.68-9.35-13.36-18.71-19.89-28.17-2.24-3.26-4.62-6.44-6.86-9.7-1.08-1.58-2-3.22-1.27-5.23l.61-1.15c2-1.54,4.34-1.43,6.67-1.43H170q40.05,0,80.11,0c2.1,0,4.29-.29,6.18,1,1.12,1.26,1.19,2.81,1.2,4.36q.08,35,0,70c0,1.76-.94,3.54.11,5.27a2.51,2.51,0,0,1,.05,1c-2.17,3-3.91,6.37-6.17,9.28-4.51,5.82-8.26,12.17-12.7,18-6.76,8.84-12.54,18.35-19.29,27.19-4.81,6.28-9.26,12.86-13.46,19.6a19.51,19.51,0,0,1-1.53,2.11c-.54.64-1.44,1.23-.91,2.22s1.49.77,2.34.78c8.13,0,16.26,0,24.39,0,7.16,0,14.32,0,21.48,0,1.42,0,3-.2,4.07,1.05l.15.42a4.38,4.38,0,0,0,0,.52c-1.22,1.72-3.07,1.41-4.77,1.41-13.63,0-27.27,0-40.9,0-5.49,0-6.27,1.05-4,6.17,3.53,7.86,6.21,16,9,24.16,3.89,11.42,9,22.37,12.71,33.86,2.74,8.55,5.84,17,9.15,25.32,2.85,7.19,5.23,14.53,7.85,21.78s4.9,14.47,7.86,21.5A65.91,65.91,0,0,1,256.06,483Z" transform="translate(-6.93 -21.58)" style="fill:#b4b4b4"/><path d="M256.06,257.61c0-.19,0-.37.05-.56a29.7,29.7,0,0,1,6.42-11.88c5-6,9-12.85,13.63-19.12,4.28-5.72,8.45-11.53,12.39-17.48,6.19-9.34,13.24-18.08,19.13-27.63,1.34-2.18,2.87-4.45,6-4.29,3.23,1.31,4.58,4.4,6.22,7,3.34,5.35,7.15,10.32,10.87,15.38C335,204.83,339,210.8,343,216.75c1.83,2.72,3.88,5.28,5.86,7.89,3.57,4.71,6.32,10,9.9,14.65,9.22,12.06,17.5,24.79,26.34,37.12,7.1,9.88,14,19.92,21.06,29.82,5.28,7.39,10.5,14.82,15.48,22.42,1.55,2.37,4.29,4.09,4.21,7.39l-.67,1.74-163.58,0c-1.83,0-3.67,0-5.51,0v0c-1.24-1.06-1.34-2.51-1.34-4q-.1-35.13,0-70.27A17.06,17.06,0,0,1,256.06,257.61Z" transform="translate(-6.93 -21.58)" style="fill:#747474"/><path d="M256,176.84l-169,0c3.06-3.16,6.06-6.39,9.2-9.47,5.17-5.08,10.42-10.09,15.68-15.08q21.36-20.25,42.77-40.47c7.56-7.17,15.09-14.38,22.68-21.52C186.41,81.8,195.6,73.4,204.6,64.8c8.73-8.33,17.25-16.87,25.94-25.24,4.93-4.75,10-9.31,15-14a13.91,13.91,0,0,1,10.62-3.71,2.32,2.32,0,0,1,.74,1.45,59.41,59.41,0,0,0,.81,8.73,11,11,0,0,0-.32,5.77,24.12,24.12,0,0,1,.14,4.89q0,63.39,0,126.77c0,2,.2,4.07-.48,6a3.72,3.72,0,0,1-.54,1Z" transform="translate(-6.93 -21.58)" style="fill:#d6d6d6"/><path d="M256.15,22.92c0-.35,0-.71,0-1.07,6.06-.06,10.23,3.4,14.21,7.39s8.11,7.7,12.13,11.58,7.79,7.76,11.81,11.52c7.81,7.32,15.78,14.47,23.55,21.84s15.27,15,23,22.35c8.68,8.24,17.57,16.25,26.25,24.48,7,6.64,13.77,13.49,20.72,20.16,3.48,3.35,7.2,6.44,10.69,9.77,7.24,6.93,14.4,13.95,21.59,20.93l4.54,4.44c-.55,1.16-1.64,1.24-2.7,1.33-1.54.14-3.09.1-4.64.1q-48.1,0-96.21,0c-2.5,0-5-.35-7.47-.35-1.07.72-2.46,1.22-3.16,2.2-3.72,5.16-7.21,10.49-10.88,15.69q-13.06,18.58-26.21,37.11-8.67,12.3-17.3,24.63,0-40.11-.08-80.21v0c1.11-1.09,2.53-.8,3.86-.8,12,0,24-.09,36,0,4.18,0,8.28-.45,12.42-.79,1.94-.16,1.81-1.22,1.38-2.62-1.44-4.72-3.42-9.25-4.82-14-2-6.65-5.07-12.9-6.88-19.6-.7-2.56-2.37-4.64-3.21-7.11-4-11.7-8-23.38-12.51-34.86-4.11-10.43-8-20.94-11.55-31.55-3.84-11.43-9-22.37-12.63-33.87C257.16,28.81,257.08,25.78,256.15,22.92Z" transform="translate(-6.93 -21.58)" style="fill:#919191"/><path d="M313.66,177.42a18.86,18.86,0,0,1,4.25-1q53.38-.09,106.77-.06c.74,2.45,2.12,4.9,2.13,7.35q.19,73.68.05,147.36a24.17,24.17,0,0,1-1.06,5c-5.72-8-11.41-16-17.15-24-2-2.74-4.12-5.35-6.06-8.11q-18.13-25.68-36.19-51.41Q356,237.7,345.67,222.85c-5-7.12-9.83-14.3-14.83-21.4C325.17,193.41,319.39,185.43,313.66,177.42Z" transform="translate(-6.93 -21.58)" style="fill:#b4b4b4"/><path d="M86.4,178c2.84,4.24,5.64,8.49,8.51,12.71,4.08,6,8.14,12,12.33,17.91,9,12.77,18.19,25.47,27.21,38.25,6.73,9.55,13.27,19.23,20,28.77,8.08,11.42,16.33,22.72,24.41,34.14C185,318.47,191,327.24,197,336a16.51,16.51,0,0,1,.82,1.82H87.08c-.61-2.46-1.74-4.92-1.74-7.38q-.16-67.77-.08-135.53c0-4.25-.08-8.51.07-12.76A19.31,19.31,0,0,1,86.4,178Z" transform="translate(-6.93 -21.58)" style="fill:#d6d6d6"/><path d="M458.16,120.85c0,.87-.05,1.74,0,2.61.54,9-7.71,14.16-14.28,14.38-8.58.29-14.71-5.32-15-13.81-.15-4.87-.3-9.65,2.1-14.39,3.45-6.8,14.36-7.93,19.67-4.77C456.31,108.23,458.16,112,458.16,120.85Z" transform="translate(-6.93 -21.58)" style="fill:#747474"/><path d="M458.08,39.29c0,1.45.07,2.9,0,4.35-.36,6.47-4.28,10.21-10,12.11s-11.26.87-15.45-3.64A14.52,14.52,0,0,1,429.29,45a39.77,39.77,0,0,1-.17-10.68c1.13-10.58,12.66-16,21.84-10.52C456.71,27.22,458.16,30.34,458.08,39.29Z" transform="translate(-6.93 -21.58)" style="fill:#747474"/><path d="M83,475.33c0,1.06,0,2.12,0,3.19.2,8.87-5.2,13.2-13,14.22-8.25,1.08-14.85-4.17-15.87-12.15a51.73,51.73,0,0,1,0-10.41c.77-10.2,12.47-14.3,20.43-10.89C81.89,462.42,83.78,468.09,83,475.33Z" transform="translate(-6.93 -21.58)" style="fill:#d6d6d6"/><path d="M83.79,394.34c-1,3.56-1.39,7.39-3,10.63-2.69,5.38-10,7.84-16.1,6.18-6.52-1.76-10.52-6.6-10.74-13.09-.08-2.22.08-4.45,0-6.67-.61-11.46,12.06-17.56,21.44-13,6.75,3.31,8.32,8.89,7.53,15.75Z" transform="translate(-6.93 -21.58)" style="fill:#d6d6d6"/><path d="M486,93.77c-5.63,1-10.65-1-14.65-5.43-5.53-6.21-4.8-13.55,1.76-18.82.37-.3.77-.57,1.18-.84,6.81-4.52,22-3.09,27.73,2.63,5.38,5.33,3.14,15.52-4,20.09C494.25,93.77,490.44,94.07,486,93.77Z" transform="translate(-6.93 -21.58)" style="fill:#747474"/><path d="M111.29,448.13c-5.16.24-10.05.31-13.91-3.79C90.46,437,91.71,430.1,99,424a13.46,13.46,0,0,1,9.68-3.17c5.27.26,10.38-.14,15.33,3,7.54,4.82,8,16.75.48,21.6C120.33,448.1,115.83,448.46,111.29,448.13Z" transform="translate(-6.93 -21.58)" style="fill:#d6d6d6"/><path d="M390.26,92.11c-6.34-3.21-9-8.22-7.94-14.88.93-5.76,5.44-10,12.12-10.65a66.75,66.75,0,0,1,13,.09A12.74,12.74,0,0,1,418.56,77.4a13.39,13.39,0,0,1-6.77,14.2c-6.37,3.74-13.06,2.25-19.72,1.59C391.57,92.66,390.76,92.65,390.26,92.11Z" transform="translate(-6.93 -21.58)" style="fill:#747474"/><path d="M25.63,448.62c-3.32-.5-6.73-.65-9.93-1.58-5.21-1.51-8.63-6.57-8.76-12.09-.12-4.76,3.5-10.37,8-12.18,7.17-2.87,14.43-3.32,21.49.19,5.85,2.92,8.37,9.24,6.73,15.78-1.35,5.41-6.66,9.33-12.82,9.43-1.55,0-3.1,0-4.65,0Z" transform="translate(-6.93 -21.58)" style="fill:#d6d6d6"/><path d="M390.26,92.11l1.81,1.08Z" transform="translate(-6.93 -21.58)" style="fill:#b5b5b5"/><path d="M256.06,483c-2.89-7.05-6-14-8.63-21.17-3.39-9.13-6.33-18.43-9.67-27.58q-7.42-20.4-15.16-40.7c-2.08-5.49-4.62-10.81-6.68-16.31s-3.6-11-5.54-16.44c-2.26-6.35-4.65-12.67-7.09-19-1.26-3.27-1.22-3.45,2.47-3.46H256c0,3.29.09,6.58.09,9.87Z" transform="translate(-6.93 -21.58)" style="fill:#b4b4b4"/><path d="M256.06,257.61l0,80.22h-56.6c1-1.65,1.56-2.79,2.3-3.83,5.2-7.42,10.38-14.85,15.66-22.22,6.06-8.47,12.28-16.83,18.3-25.32,4-5.67,7.75-11.54,11.74-17.23C250.2,265.28,253.17,261.48,256.06,257.61Z" transform="translate(-6.93 -21.58)" style="fill:#919191"/><path d="M256.08,176.3l0-144.62c1.77-.58,2.11.76,2.59,1.92,2,4.75,3.24,9.74,5.29,14.44,6,13.68,9.76,28.17,15.43,41.95,4.53,11,8.53,22.22,12.44,33.43s8.95,21.91,12.24,33.31c1.62,5.64,4.06,11.05,5.8,16.68.8,2.6.4,3.17-2.26,3.17q-25.09,0-50.2,0A1.84,1.84,0,0,1,256.08,176.3Z" transform="translate(-6.93 -21.58)" style="fill:#b4b4b4"/><path d="M256.08,176.3h49.65c3.73,0,3.77-.06,2.54-3.5q-5.34-15-10.75-30c-1.31-3.62-2.84-7.15-4.16-10.77-4-11-8-22.13-12-33.19q-5.75-15.8-11.58-31.55-6.12-16.57-12.33-33.14a20.68,20.68,0,0,0-1.33-2.5l0-8.76c1.52,4,3.07,7.91,4.54,11.88C264.82,45.93,269,57.07,273,68.22q11.39,31.17,22.71,62.36c5.16,14.14,10.37,28.26,15.48,42.42,1.3,3.58,1,3.85-2.66,3.85q-26.26,0-52.52,0C256.05,176.65,256.06,176.48,256.08,176.3Z" transform="translate(-6.93 -21.58)" style="fill:#b4b4b4"/></svg>