<?xml version="1.0" encoding="utf-8"?>
<svg x="0" y="0"  xmlns="http://www.w3.org/2000/svg" xmlns:xlink="http://www.w3.org/1999/xlink" viewBox="0 0 512 512" class="pizza-shadow relative z-10 aspect-square w-[1.17rem]"><path d="M381 254.2c-2.5-1.3-5.5-1.1-7.7.5l-37.6 26.2c-2 1.4-3.2 3.7-3.2 6.2v112.4c0 14.5 11.8 26.3 26.3 26.3s26.3-11.8 26.3-26.3V260.8c-.1-2.8-1.7-5.3-4.1-6.6zM297.4 312.3a7.55 7.55 0 0 0-7.8.5L252 339c-2 1.4-3.2 3.7-3.2 6.2v38.3c0 14.5 11.8 26.3 26.3 26.3s26.3-11.8 26.3-26.3V319c0-2.8-1.6-5.4-4-6.7zM157.6 409.5a7.55 7.55 0 0 0-7.8.5l-37.6 26.2c-2 1.4-3.2 3.7-3.2 6.2v42.4c0 14.5 11.8 26.3 26.3 26.3s26.3-11.8 26.3-26.3v-68.5c.1-2.9-1.5-5.5-4-6.8z" style="fill: rgb(255, 235, 161);"></path><path d="M381 254.2c-2.5-1.3-5.5-1.1-7.7.5l-14.5 10.1v134.6c0 9.7-5.3 18.2-13.2 22.8 3.9 2.2 8.4 3.5 13.2 3.5 14.5 0 26.3-11.8 26.3-26.3V260.8c-.1-2.8-1.7-5.3-4.1-6.6zM297.4 312.3a7.55 7.55 0 0 0-7.8.5l-14.5 10.1v60.6c0 9.7-5.3 18.2-13.2 22.8 3.9 2.2 8.4 3.5 13.2 3.5 14.5 0 26.3-11.8 26.3-26.3V319c0-2.8-1.6-5.4-4-6.7zM157.6 409.5a7.55 7.55 0 0 0-7.8.5l-14.5 10.1v64.6c0 9.7-5.3 18.2-13.2 22.8 3.9 2.2 8.4 3.5 13.2 3.5 14.5 0 26.3-11.8 26.3-26.3v-68.5c.1-2.8-1.5-5.4-4-6.7z" style="fill: rgb(247, 211, 111);"></path><path d="M419.9 231.3c-1-1.4-1.7-3-2.2-4.6-.1-.2-5.8-19.2-25.4-46.2-18.7-25.5-53.4-62.5-113.4-94-60-31.5-110.2-39.1-141.8-39.9-33.4-.9-52.3 5.2-52.4 5.3-1.6.5-3.2.8-4.9.8h-.1c-2 0-3.9.8-5.3 2.2-1.4 1.4-2.2 3.3-2.2 5.3l-1.7 409.1c0 2.8 1.5 5.4 4 6.7 1.1.6 2.3.9 3.5.9 1.5 0 3-.5 4.3-1.3L418 241.8c3.4-2.4 4.2-7.1 1.9-10.5z" style="fill: rgb(252, 210, 88);"></path><path d="M74.4 475.9c1.1.6 2.3.9 3.5.9 1.5 0 3-.5 4.3-1.3L418 241.8c3.4-2.4 4.2-7 1.9-10.4-1-1.4-1.7-3-2.2-4.6 0-.1-2.7-8.9-10.5-22.9L70.5 437.3l-.1 31.9c0 2.8 1.5 5.4 4 6.7z" style="fill: rgb(246, 193, 52);"></path><path d="M199.4 159.6c-25.9 0-47 21.1-47 47s21.1 47 47 47 47-21.1 47-47-21.1-47-47-47z" style="fill: rgb(242, 67, 59);"></path><path d="M199.4 220.5c-20.1 0-37.3-12.7-44-30.5-1.9 5.1-3 10.7-3 16.5 0 25.9 21.1 47 47 47s47-21.1 47-47c0-5.8-1.1-11.4-3-16.5-6.7 17.8-23.9 30.5-44 30.5z" style="fill: rgb(216, 54, 54);"></path><path d="M111.5 236.3c-8.6-8.8-20.1-13.8-32.4-14.1-2 0-4 .7-5.4 2.1-1.4 1.4-2.3 3.3-2.3 5.3l-.3 78.9c0 2 .8 3.9 2.2 5.4 1.4 1.4 3.3 2.2 5.3 2.2h.1c25.5-.4 46.2-21.5 46.2-47 0-12.3-4.8-24-13.4-32.8z" style="fill: rgb(242, 67, 59);"></path><path d="M78.7 282.6h-.1c-2 0-3.9-.8-5.3-2.2-1.1-1.1-1.8-2.5-2.1-3.9l-.2 32.1c0 2 .8 3.9 2.2 5.4 1.4 1.4 3.3 2.2 5.3 2.2h.1c25.5-.4 46.2-21.5 46.2-47 0-5.8-1.1-11.5-3.1-16.8-6.6 17.3-23.4 29.9-43 30.2z" style="fill: rgb(216, 54, 54);"></path><path d="M308.8 235.6c-25.9 0-47 21.1-47 47 0 19.1 11.4 36.1 29 43.4.9.4 1.9.6 2.9.6 1.5 0 3-.5 4.3-1.3l54.6-38c2.1-1.5 3.3-3.9 3.2-6.4-1-25.4-21.6-45.3-47-45.3zM370.4 154.4c-14.7-15.5-31.6-30-50.4-43.1-1.8-1.3-4.1-1.6-6.2-1.1-20.7 5.4-35.1 24.1-35.1 45.5 0 25.9 21.1 47 47 47 24.3 0 44.4-18.2 46.8-42.4.1-2.2-.6-4.3-2.1-5.9z" style="fill: rgb(242, 67, 59);"></path><path d="M364.2 148.1c-8.5 12.2-22.6 20.1-38.6 20.1-19.8 0-36.8-12.4-43.7-29.8-2.1 5.4-3.3 11.2-3.3 17.3 0 25.9 21.1 47 47 47 24.3 0 44.4-18.2 46.8-42.4.2-2.2-.5-4.3-2-5.9-2-2.1-4.1-4.2-6.2-6.3z" style="fill: rgb(216, 54, 54);"></path><path d="M211.2 62.6c-.7-2.6-2.7-4.6-5.2-5.3-23.6-6.5-46.8-10.1-68.9-10.7-1.6 0-3.1-.1-4.7-.1h-.1c-2.6 0-5 1.3-6.4 3.5-4.7 7.5-7.1 16-7.1 24.8 0 25.9 21.1 47 47 47s47-21.1 47-47c.1-4.1-.5-8.2-1.6-12.2z" style="fill: rgb(242, 67, 59);"></path><path d="M209 59c-7.2 16.7-23.8 28.5-43.2 28.5-19.8 0-36.8-12.4-43.7-29.8-2.1 5.5-3.3 11.3-3.3 17.2 0 25.9 21.1 47 47 47s47-21.1 47-47c0-4.1-.5-8.3-1.6-12.3-.4-1.4-1.1-2.7-2.2-3.6z" style="fill: rgb(216, 54, 54);"></path><path d="M230.8 364.8c-7.3-17.6-24.3-29-43.4-29-25.9 0-47 21.1-47 47 0 13 5.5 25.6 15.1 34.5 1.4 1.3 3.3 2 5.1 2 1.5 0 3-.4 4.3-1.3l63.3-44.1c2.9-2.1 4-5.9 2.6-9.1z" style="fill: rgb(242, 67, 59);"></path><path d="M462.4 213.6c-1.2-4-30.5-99.4-161.7-168.3-.1 0-.1-.1-.1-.1C169.2-23.7 74 6.3 70.1 7.6 54 12.9 45.2 30.3 50.5 46.4c2.6 7.8 8 14.1 15.4 17.9 7.3 3.7 15.7 4.3 23.4 1.8.2-.1 17.6-5.3 47.5-4.6 30 .8 77.8 8 135.3 38.2s90.5 65.4 108.2 89.7c17.6 24.2 23.1 41.5 23.2 41.6 2.3 7.9 7.6 14.4 14.8 18.3 4.6 2.5 9.6 3.8 14.7 3.8 2.9 0 5.8-.4 8.7-1.3 7.9-2.3 14.4-7.6 18.3-14.8 3.8-7.2 4.7-15.5 2.4-23.4z" style="fill: rgb(255, 159, 52);"></path><path d="M444.4 228.9c0-.1-6.6-20.8-27.6-49.5-21.1-28.9-60.5-70.9-129-106.9C219.4 36.6 162.4 27.9 126.6 27 91 26.1 70.2 32.4 70 32.4c-6.8 2.2-14.1 2.4-21 .5-.6 4.4-.2 9.1 1.3 13.6 2.6 7.8 8 14.1 15.4 17.9 7.3 3.7 15.7 4.3 23.4 1.8.2-.1 17.6-5.3 47.5-4.6 30 .8 77.8 8 135.3 38.2s90.5 65.4 108.2 89.7c17.6 24.2 23.1 41.5 23.2 41.6 2.3 7.9 7.6 14.4 14.8 18.3 4.6 2.5 9.6 3.8 14.7 3.8 2.9 0 5.8-.4 8.7-1.3 4.7-1.4 9-3.8 12.4-7.1-4.4-4.4-7.7-9.8-9.5-15.9z" style="fill: rgb(251, 143, 45);"></path><path d="M290.8 326.1c.9.4 1.9.6 2.9.6 1.5 0 3-.5 4.3-1.3l54.6-38c2.1-1.5 3.3-3.9 3.2-6.4-.5-12.5-5.7-23.6-13.9-31.7l-76 52.7c4.8 10.6 13.5 19.3 24.9 24.1zM155.5 417.2c1.4 1.3 3.3 2 5.1 2 1.5 0 3-.4 4.3-1.3l63.3-44.1c2.9-2 4-5.8 2.6-9-4.3-10.4-12.1-18.7-21.6-23.7l-68.4 47.4c1.4 10.9 6.6 21.1 14.7 28.7z" style="fill: rgb(216, 54, 54);"></path></svg>
