<?xml version="1.0" encoding="utf-8"?>
<svg x="0" y="0"  xmlns="http://www.w3.org/2000/svg" xmlns:xlink="http://www.w3.org/1999/xlink" viewBox="0 0 512 512" class="uncommon-shadow relative z-10 aspect-square w-[1.17rem]"><path d="M425.16,337.86c-4.58,4.63-9.1,9.34-13.77,13.89-5.59,5.43-11.32,10.7-17,16.07s-11.13,10.66-16.71,16c-5.23,5-10.51,9.87-15.75,14.83-5,4.69-9.85,9.44-14.84,14.1-8.09,7.55-16.25,15-24.33,22.58-5.83,5.45-11.6,11-17.39,16.49l-16.33,15.5c-5.65,5.36-11.27,10.76-16.95,16.09a74.71,74.71,0,0,1-8.4,7.34c-5.53,3.79-13.28,2.93-18.21-1.67-2-1.9-3.85-4.05-5.87-6-2.8-2.64-5.77-5.1-8.56-7.75s-5.21-5.41-8-8c-3.93-3.69-8-7.19-12-10.87-5.84-5.44-11.61-11-17.4-16.46q-8.37-7.95-16.73-15.91c-5.23-5-10.51-9.87-15.74-14.84-5.86-5.57-11.64-11.21-17.52-16.76q-17.45-16.41-35-32.76c-5.41-5.07-10.88-10.07-16.2-15.23a76.89,76.89,0,0,1-5.21-6.13c1-1,2.32-.88,3.57-.88q52.43,0,104.84,0a9,9,0,0,1,1.73.14c2.41.28,2.88,2.3,3.62,4.07,6.51,15.63,11.34,31.89,17.59,47.61,5.18,13.05,9.23,26.51,14.43,39.52,5.93,14.84,10.84,30,16.51,44.94,2,5.21,4.33,10.27,5.77,15.17a16.15,16.15,0,0,1-.18-4.13V345.14c0-.68,0-1.36,0-2,0-3.59-.21-3.8-3.76-3.8-15.5,0-31,0-46.48,0-1.81,0-3.72.25-5.22-1.19-1-1.9.38-3.19,1.38-4.37,5.6-6.57,9.57-14.29,14.93-21,6.88-8.62,12.14-18.37,19.2-26.87,3.38-4.08,5.83-8.87,8.93-13.2s6.4-8.73,9.51-13.17c.81-1.16,1.92-2.74,3.07-.13a23.17,23.17,0,0,1,.24,4.92q0,32.92,0,65.86v1.16c0,5.62,0,5.63,5.51,5.63q78.5,0,157,0C421.47,336.94,423.49,336.43,425.16,337.86Z" transform="translate(-7.04 -21.87)" style="fill:#fe4ac0"/><path d="M256,258.2c-2.9,3.76-5.91,7.44-8.66,11.31-3.23,4.53-6.15,9.29-9.33,13.86-5.72,8.19-11.55,16.31-17.29,24.48-5.3,7.52-10.53,15.09-15.84,22.6-1.65,2.34-3.48,4.56-5.23,6.83a1.48,1.48,0,0,1-1.62.34,6,6,0,0,1-2.44-2.43c-4.22-6.72-9.36-12.8-13.7-19.42-7.23-11-15.28-21.41-22.67-32.28-4.95-7.27-10-14.42-15.15-21.57-9.65-13.55-19.12-27.22-28.76-40.78-6.84-9.6-13.67-19.21-20.38-28.91-2.19-3.17-4.47-6.3-6.72-9.44a8.25,8.25,0,0,1-1.92-3.53l1.31-2.93A9.62,9.62,0,0,1,90.8,176q80,0,160,0c1.81,0,3.7-.33,5.36.81a4.56,4.56,0,0,1,.9,3.28c0,25.15.18,50.31-.09,75.46C256.92,256.54,256.94,257.53,256,258.2Z" transform="translate(-7.04 -21.87)" style="fill:#fe7ddf"/><path d="M256,258.2l.22-2.17c4-6.5,8.69-12.52,13.16-18.7,3.5-4.85,6.54-10,10.22-14.76,4.81-6.18,9-12.79,13.5-19.17,5.44-7.73,11.26-15.2,16.15-23.31a7,7,0,0,1,2.73-3,2.69,2.69,0,0,1,2.12.07,29.18,29.18,0,0,1,5.21,6.92c3.34,5.59,7.43,10.6,11.16,15.88,4.18,5.91,8.41,11.81,12.29,17.93,1.61,2.53,3.6,4.78,5.42,7.15,3.64,4.78,6.43,10.12,10.06,14.89,9,11.85,17.19,24.28,25.82,36.4,7.27,10.23,14.31,20.64,21.73,30.75,6.4,8.72,11.89,18.07,18.76,26.44a4.28,4.28,0,0,1,1.26,2.55l-.69,1.74q-83,0-166,.07c-2.46,0-3.05-.76-3.05-3.13.08-24.27.05-48.55.05-72.83C256.14,260.71,256.07,259.45,256,258.2Z" transform="translate(-7.04 -21.87)" style="fill:#ec2b9c"/><path d="M256.08,176.91q-82.86,0-165.73,0a13,13,0,0,1-2.71-.58,60.42,60.42,0,0,1,5.21-6.43c6-5.69,12.27-11.1,18.3-16.76,9-8.46,17.83-17.09,26.83-25.55,6.37-6,13-11.74,19.33-17.72,3.86-3.62,7.42-7.56,11.28-11.18,6.6-6.19,13.38-12.18,20-18.37,3.86-3.62,7.42-7.56,11.27-11.18,7.64-7.19,15.4-14.24,23.06-21.4,1.46-1.37,2.58-3.12,4-4.49,4-3.75,8.17-7.36,12.19-11.1,2.18-2,4.18-4.22,6.3-6.31a13.3,13.3,0,0,1,10.77-3.9,3.57,3.57,0,0,1,.74,2.69c.3,49.4.06,98.8.13,148.19a7.2,7.2,0,0,1-.58,3.69Z" transform="translate(-7.04 -21.87)" style="fill:#feadfe"/><path d="M256.28,24.09c0-.71,0-1.43-.07-2.15,6.12-.25,10.24,3.46,14.24,7.28,3.4,3.26,6.57,6.76,10,10,4.69,4.54,9.5,9,14.23,13.46q8.28,7.86,16.51,15.76c4.8,4.57,9.59,9.16,14.41,13.71,5.24,5,10.53,9.86,15.76,14.82,5.8,5.5,11.55,11,17.32,16.56q6.78,6.48,13.57,12.92c5.94,5.63,11.87,11.26,17.86,16.83,3.25,3,6.71,5.79,9.9,8.85,6.8,6.52,13.49,13.16,20.22,19.74l4.5,4.42c-.13,1.33-1.23,1.32-2.14,1.46a21.12,21.12,0,0,1-3.47.11q-50.79,0-101.57,0a14.26,14.26,0,0,1-3.45-.32l-2.15-.08a1.69,1.69,0,0,1-.53-.73c-1.07-5.43-3.27-10.5-5.05-15.7-2.91-8.49-6.19-16.85-8.92-25.4a5.29,5.29,0,0,0-1.11-1.83c-2-3.36-2.71-7.23-4-10.87Q285,102.2,277.05,81.62c-3.74-9.75-6.68-19.8-10.62-29.47C262.66,42.92,259.3,33.58,256.28,24.09Z" transform="translate(-7.04 -21.87)" style="fill:#fe4ac0"/><path d="M314.06,177.6a19.41,19.41,0,0,1,3.57-.64q51.74-.06,103.48-.05a23.41,23.41,0,0,0,3.58-.58c.76,2.43,2.17,4.87,2.18,7.31q.18,73.89,0,147.79a21.29,21.29,0,0,1-1.06,4.69c-5.77-8.15-11.52-16.32-17.32-24.44-1.78-2.49-3.83-4.8-5.59-7.3-3.27-4.64-6.34-9.42-9.63-14-8.57-12.08-17.26-24.08-25.82-36.17C360.17,243.81,353,233.36,345.7,223c-4-5.74-8.15-11.4-12.15-17.15C327,196.43,320.55,187,314.06,177.6Z" transform="translate(-7.04 -21.87)" style="fill:#fe7cdf"/><path d="M86.33,179.26c1.19,1.5,2.46,2.94,3.55,4.5,6,8.5,11.78,17.07,17.78,25.53,8.45,11.92,17.08,23.71,25.51,35.65,7.15,10.11,14.09,20.37,21.18,30.52,4.51,6.45,9.17,12.79,13.7,19.23,6.08,8.62,12.08,17.3,18.15,25.93,3.92,5.58,7.91,11.11,11.87,16.66.31.38.32.72-.13,1l-78.9.06-31.63,0c-.7-2.53-2-5.05-2-7.58-.14-33.78-.1-67.57-.09-101.36,0-15.49,0-31,0-46.47A15,15,0,0,1,86.33,179.26Z" transform="translate(-7.04 -21.87)" style="fill:#feadfe"/><path d="M458.18,39.4c0,1.41,0,2.76,0,4.12-.19,7.63-6.43,12.09-12.86,13-7,1-13.79-2.77-15.51-8.92a28.42,28.42,0,0,1,.57-18.24c2.79-7.1,13.62-9.68,20.79-5.54C457.41,27.45,458.52,33.06,458.18,39.4Z" transform="translate(-7.04 -21.87)" style="fill:#ec2d9d"/><path d="M458.09,121.1c0,1.74.11,3.49,0,5.22-.56,7.1-9.26,11.85-14.81,11.68-7.45-.23-13.43-4.87-14.12-11.92-.51-5.33-1.25-10.85,1.72-15.85a14,14,0,0,1,15.78-6.79c7,1.56,11.56,7,11.58,14.19v3.47Z" transform="translate(-7.04 -21.87)" style="fill:#ec2d9d"/><path d="M485.15,94c-5.71,1-10.66-1.8-14.91-6.78-3.3-3.85-3.42-11.18.15-14.76,8.15-8.16,22.61-8.91,31.29-1.37,4.82,4.19,4.35,14.73-.72,18.12C492.66,94.72,495.67,93.82,485.15,94Z" transform="translate(-7.04 -21.87)" style="fill:#ec2d9d"/><path d="M400.77,93.91c-4.51.34-8.78,0-12.67-2.82-4.85-3.52-6.62-8.11-5.74-13.87a11.69,11.69,0,0,1,9.87-10A72.07,72.07,0,0,1,408,66.83c5.56.52,9.79,5.35,10.62,10.8.92,6-1.88,10.89-6.85,14.16C408.22,94.16,404.54,93.8,400.77,93.91Z" transform="translate(-7.04 -21.87)" style="fill:#ec2d9d"/><path d="M83.35,475.3c-.32,2.76-.58,5.53-1,8.28-.91,6.31-11,10.64-16.65,9.15C57.51,490.58,54,486.11,54,477.62c0-3-.24-6.05.34-8.94,1.81-9.09,12.75-12.74,20.23-9.31C79.91,461.83,83.74,464.26,83.35,475.3Z" transform="translate(-7.04 -21.87)" style="fill:#feaefe"/><path d="M112.24,448.86c-5.84-.29-10.93-.38-14.9-4.53-7-7.34-5.39-14.85,2.08-20.57a12.88,12.88,0,0,1,9.39-2.89c2.21.22,4.45,0,6.67.06,7.06.28,15.46,6.33,14.65,15-.61,6.57-5.36,10.74-11.7,12.24A44.86,44.86,0,0,1,112.24,448.86Z" transform="translate(-7.04 -21.87)" style="fill:#feaefe"/><path d="M83.79,394.12c-.88,3.58-1.19,7.44-2.77,10.68-2.66,5.46-10,7.92-15.92,6.62-7.72-1.68-11.17-8.14-11.13-14.53,0-2.89-.25-5.84.22-8.67,1.59-9.63,13.24-14.08,21.61-9.5,6.29,3.44,7.78,7.24,7.25,15.22Z" transform="translate(-7.04 -21.87)" style="fill:#feaefe"/><path d="M26.53,448.82c-5.39-.12-9.76-.61-13.69-3-4.45-2.73-6.12-7.05-5.75-11.86.41-5.33,3.35-9,8.46-11.4,5.56-2.64,11.2-1.72,16.73-1.37,6,.37,12,8,11.64,13.63-.56,7.86-4.9,12.61-12.84,13.47C29.26,448.46,27.45,448.71,26.53,448.82Z" transform="translate(-7.04 -21.87)" style="fill:#feaefe"/><path d="M197.94,338.29c.05-.34.09-.68.13-1h1.62a17.88,17.88,0,0,0,4.32,1.08q24.68.12,49.35,0c2.11,0,2.83.53,2.83,2.75q-.09,74.88-.05,149.76c0,.29-.05.57-.15,1.65-1.32-3.71-2.38-6.74-3.48-9.76-5.59-15.36-11.13-30.73-16.8-46.06-3.46-9.38-7.22-18.64-10.66-28-6.05-16.51-11.9-33.11-17.94-49.63-2.37-6.48-5-12.87-7.59-19.27C199.27,339.18,198.48,338.78,197.94,338.29Z" transform="translate(-7.04 -21.87)" style="fill:#fe7cdf"/><path d="M311.89,176.9c0,.21,0,.42,0,.62-4.37,6.44-8.67,12.93-13.12,19.31-4.33,6.22-8.88,12.28-13.23,18.49-5.78,8.24-11.42,16.58-17.18,24.84-3.45,5-7,9.84-10.57,14.72a6.37,6.37,0,0,1-1.56,1.15c0-9.95-.09-19.9-.11-29.85q0-24.63-.06-49.27h0c1.14-.93,2.52-.88,3.86-.88q24,0,48.08,0C309.38,176,310.77,175.92,311.89,176.9Z" transform="translate(-7.04 -21.87)" style="fill:#fe4ac0"/><path d="M311.89,176.9H256.1q0-74.37,0-148.75c0-1.35.08-2.7.13-4a11.54,11.54,0,0,1,1.47,2.29c2.29,6.54,4.39,13.16,6.78,19.66,5.4,14.7,11,29.33,16.39,44s10.6,29.26,15.89,43.89c.38.38.75.77,1.13,1.16q6.71,19.05,13.38,38.1A20.2,20.2,0,0,1,311.89,176.9Z" transform="translate(-7.04 -21.87)" style="fill:#fe7ddf"/><path d="M297.94,135.13,296.81,134Z" transform="translate(-7.04 -21.87)" style="fill:#fe7cdf"/></svg>