<?xml version="1.0" encoding="utf-8"?>
<svg x="0" y="0"  xmlns="http://www.w3.org/2000/svg" xmlns:xlink="http://www.w3.org/1999/xlink" viewBox="0 0 512 512" class="vintage-shadow relative z-10 aspect-square w-[1.17rem]"><path d="M412.7 63.7h-14.3L256 84.3 113.6 63.7H97.3c-17.6 0-31.8-14.3-31.8-31.8C65.4 14.3 79.7 0 97.3 0h315.4c17.6 0 31.8 14.3 31.8 31.8 0 17.6-14.2 31.9-31.8 31.9z" style="fill: rgb(170, 104, 104);"></path><path d="M414.7 0h-30.9c17.6 0 31.8 14.3 31.8 31.8s-14.3 31.8-31.8 31.8h30.9c17.6 0 31.8-14.3 31.8-31.8.1-17.5-14.2-31.8-31.8-31.8z" style="fill: rgb(145, 76, 76);"></path><path d="M396.4 103.7v-40H113.6v40c0 62 39.6 114.8 95 134.3 7.6 2.7 12.7 9.9 12.7 18s-5.1 15.3-12.7 18c-55.3 19.5-95 72.3-95 134.3v40h282.8v-40c0-62-39.6-114.8-95-134.3-7.6-2.7-12.7-9.9-12.7-18h2.1c0-8.1 3-15.3 10.7-18 55.2-19.6 94.9-72.3 94.9-134.3z" style="fill: rgb(239, 237, 239);"></path><path d="M113.6 63.7v20.2h234.2c10.9 0 19.8 8.9 19.8 19.8 0 61.8-39.4 114.4-94.4 134.1-6.8 2.4-12 8.3-13.1 15.4-1.3 9.2 4 17.8 12.5 20.8 55.3 19.5 95 72.3 95 134.3v40h30.9v-40c0-61.8-39.4-114.4-94.4-134.1-6.8-2.4-12-8.3-13.1-15.4-1.3-9.2 4-17.8 12.5-20.8 55.3-19.5 95-72.3 95-134.3v-40H113.6z" style="fill: rgb(215, 208, 214);"></path><path d="M412.7 512H97.3c-17.6 0-31.8-14.3-31.8-31.8s14.3-31.8 31.8-31.8h16.3L256 427.7l142.4 20.6h14.3c17.6 0 31.8 14.3 31.8 31.8 0 17.6-14.2 31.9-31.8 31.9z" style="fill: rgb(170, 104, 104);"></path><path d="M414.7 448.3h-30.9c17.6 0 31.8 14.3 31.8 31.8S401.4 512 383.8 512h30.9c17.6 0 31.8-14.3 31.8-31.8.1-17.6-14.2-31.9-31.8-31.9z" style="fill: rgb(145, 76, 76);"></path><path d="M324.6 336.6h-15c-15.1 0-30-10.9-32.5-25.8l-6.1-36.9c-3.1-18.8 11.4-35.9 30.4-35.9 37-13.1 66.9-40.9 82.7-76.5H125.8c15.8 35.6 45.8 63.4 82.7 76.5 19 0 33.5 17.1 30.4 35.9l-6.1 36.9c-2.5 14.9-15.3 25.8-30.4 25.8h-17.1c-39.3 0-71.6 31.6-71.8 71v40.8h282.8v-40.8c-.1-39.4-32.4-71-71.7-71z" style="fill: rgb(251, 189, 128);"></path><path d="M398.4 407.5c-.2-39.3-32.5-71-71.8-71h-17.1c-15.1 0-28-10.9-30.4-25.8l-6.1-36.9c-3.1-18.8 11.4-35.9 30.4-35.9 37-13.1 66.9-40.9 82.7-76.5h-30.9c-15.8 35.6-45.8 63.4-82.7 76.5-19 0-33.5 17.1-30.4 35.9l6.1 36.9c2.5 14.9 15.3 25.8 30.4 25.8h17.1c39.3 0 71.6 31.6 71.8 71v40.8h30.9v-40.8z" style="fill: rgb(226, 149, 80);"></path></svg>