<?xml version="1.0" encoding="utf-8"?>
<!-- Generator: Adobe Illustrator 25.0.0, SVG Export Plug-In . SVG Version: 6.00 Build 0)  -->
<svg version="1.1" id="right" xmlns="http://www.w3.org/2000/svg" xmlns:xlink="http://www.w3.org/1999/xlink" x="0px" y="0px"
	 viewBox="0 0 400 400" style="enable-background:new 0 0 400 400;" xml:space="preserve">
<g>
	<circle style="fill:#3e3d41;" cx="201.5" cy="198.5" r="137.5"/>	
</g>
<g>
	<g>
		<path style="fill:#00FFCC;" d="M182.07,255.92c31.3-27.07,62.59-54.14,93.89-81.2c4.45-3.85,8.91-7.7,13.36-11.56
			c5.27-4.56,4.67-13.56,0-18.23c-5.22-5.22-12.95-4.57-18.23,0c-31.3,27.07-62.59,54.14-93.89,81.2
			c-4.45,3.85-8.91,7.7-13.36,11.56c-5.27,4.56-4.67,13.56,0,18.23C169.06,261.15,176.78,260.49,182.07,255.92L182.07,255.92z"/>
	</g>
</g>
<g>
	<g>
		<path style="fill:#00FFCC;" d="M113.4,206.13c15.32,15.32,30.64,30.64,45.96,45.96c11.75,11.75,29.98-6.48,18.23-18.23
			c-15.32-15.32-30.64-30.64-45.96-45.96C119.89,176.16,101.65,194.38,113.4,206.13L113.4,206.13z"/>
	</g>
</g>
</svg>
