<?xml version="1.0" encoding="utf-8"?>
<svg x="0" y="0"  xmlns="http://www.w3.org/2000/svg" xmlns:xlink="http://www.w3.org/1999/xlink" viewBox="0 0 512 512" class="block78-shadow relative z-10 aspect-square scale-110 w-[1.17rem]"><style>.bg-en{enable-background:new}</style><g id="Cube"><path d="M477.1 128v256L256 500.4 34.9 384V128l14.1-7.4 207 106.3 204.5-107.6 16.6 8.7z" style="fill: rgb(183, 34, 53);"></path><path d="M34.9 128 256 244.4 477.1 128 256 11.6 34.9 128z" style="fill: rgb(214, 56, 83);"></path><path d="M477.1 128v256L256 500.4v-256L477.1 128z" style="fill: rgb(147, 12, 35);"></path></g><path d="M250.3 122.6v7.7l-74.9 189.9h-55.7l60.4-151.3H98.6v-46.3h151.7zM389.8 215.7c17.7 11.4 26.3 26.6 26.3 46.3 0 37.4-31.6 63-78.3 63s-78.1-25.4-78.1-63c0-19.8 8.5-35 26.2-46.3-13.8-11.2-20.8-24.7-20.8-40.5 0-34 29.3-57.4 72.8-57.4s72.7 23.2 72.7 57.4c.1 16-7 29.6-20.8 40.5zm-25.4 44.7c0-13.9-10.4-23.5-26.4-23.5s-26.6 9.7-26.6 23.5 10.6 23.5 26.6 23.5 26.4-9.7 26.4-23.5zm-49.1-83.6c0 11.5 9.2 19.7 22.7 19.7s22.5-8.4 22.5-19.7c0-11.4-9.1-19.7-22.5-19.7s-22.7 8.2-22.7 19.7z" style="fill: rgb(255, 255, 255);"></path></svg>
