<?xml version="1.0" encoding="utf-8"?>
<svg x="0" y="0"  xmlns="http://www.w3.org/2000/svg" xmlns:xlink="http://www.w3.org/1999/xlink" viewBox="0 0 512 512" class="block9-shadow relative z-10 aspect-square w-[1.17rem]"><path d="M477.1 128v256L256 500.4 34.9 384V128l14.1-7.4 207 106.3 204.5-107.6 16.6 8.7z" style="fill: rgb(127, 127, 127);"></path><path d="M34.9 128 256 244.4 477.1 128 256 11.6 34.9 128z" style="fill: rgb(158, 158, 158);"></path><path d="M477.1 128v256L256 500.4v-256L477.1 128z" style="fill: rgb(102, 102, 102);"></path><path d="M349 204.3c0 24-7.3 47.8-26.8 80.6L279 358h-67.6c15.4-25.8 31.2-52 46.6-77.9-5.2.8-10.3 1.1-15.5 1.1-46.8 0-79.5-31.3-79.5-76.6 0-51.3 37.8-86.6 92.8-86.6 55.2-.2 93.2 35.1 93.2 86.3zm-58.6.2c0-19.8-14.4-33.3-34.4-33.3-20.2 0-34.4 13.5-34.4 33.3 0 20 14.2 33.7 34.4 33.7 20-.1 34.4-13.7 34.4-33.7z" style="fill: rgb(255, 255, 255);"></path></svg>