<?xml version="1.0" encoding="utf-8"?>
<svg x="0" y="0"  xmlns="http://www.w3.org/2000/svg" xmlns:xlink="http://www.w3.org/1999/xlink" viewBox="0 0 512 512" class="epic-shadow relative z-10 aspect-square w-[1.17rem]"><path d="M256 0 86.3 96.4l54.8 89.3L256 198.9l45.9-106.3L256 0zM256 512l45.9-66.6L256 313.2l-101.2 9-68.5 93.4L256 512z" style="fill: rgb(72, 229, 72);"></path><path d="M86.3 96.4v319.2L256 313.2V198.9L86.3 96.4z" style="fill: rgb(47, 209, 47);"></path><path d="m256 313.2 97.5 86.3 72.2 16.1V96.4H348l-92 102.4v114.4z" style="fill: rgb(5, 153, 5);"></path><path d="M425.7 96.4 256 0v198.9L425.7 96.4zM256.1 313.2 256 512l169.7-96.4-169.6-102.4z" style="fill: rgb(47, 209, 47);"></path><path d="M176.2 150.7v210.7l79.8 47.3L295.9 271 256 103.3l-79.8 47.4z" style="fill: rgb(136, 255, 136);"></path><path d="M256 103.3v305.3l79.8-47.3V150.7L256 103.3z" style="fill: rgb(72, 229, 72);"></path></svg>