<?xml version="1.0" encoding="utf-8"?>
<svg x="0" y="0"  xmlns="http://www.w3.org/2000/svg" xmlns:xlink="http://www.w3.org/1999/xlink" viewBox="0 0 512 512" class="nakamoto-shadow relative z-10 aspect-square w-[1.17rem]"><g id="Page-1"><g id="_x30_16---Hacker"><path id="Shape" d="M106 474.7c-5.8-2.1-10.9-5.8-14.7-10.7l-36.5-47.6a49.898 49.898 0 0 1-7.6-48.1l33.1-89.6c3.7-10.1 10.7-18.8 19.8-24.5l48.6-34.9 212 2.7 51.3 32.1c9.1 5.8 16.1 14.4 19.8 24.5l33.1 89.6c6 16.3 3.2 34.5-7.6 48.1L420.6 464c-3.8 4.9-8.8 8.6-14.7 10.7H106z" style="fill: rgb(30, 96, 139);"></path><path id="Shape_00000041297586198212639860000002090765980199362718_" d="m211.9 282.5-91.2-91.2c-6.5-6.6-8.7-16.2-5.9-25C128.7 123.3 175.8 0 256 0s127.3 123.3 141.2 166.3c2.8 8.8.5 18.4-5.9 25l-91.2 91.2h-88.2z" style="fill: rgb(4, 63, 96);"></path><path id="Rectangle-path" d="M123.6 459h264.8c9.8 0 17.7 7.9 17.7 17.7v17.7c0 9.8-7.9 17.7-17.7 17.7H123.6c-9.8 0-17.7-7.9-17.7-17.7v-17.7c0-9.8 7.9-17.7 17.7-17.7z" style="fill: rgb(149, 165, 165);"></path><path id="Shape_00000128460554208500162830000000119069728180470189_" d="M380.9 459H131.1l-7.4-147.2c-.5-7.5 2-14.9 7.1-20.4 5.1-5.5 12.2-8.8 19.7-8.9h211.3c7.5.1 14.6 3.4 19.7 8.9s7.6 12.9 7.1 20.4L380.9 459z" style="fill: rgb(189, 195, 199);"></path><path id="Shape_00000045598148840848013720000007008029039104918409_" d="M317.8 167.7v17c0 11.7-4.6 22.9-12.9 31.2l-18.8 18.8c-16.6 16.6-43.6 16.6-60.2 0l-18.8-18.8c-8.3-8.3-12.9-19.5-12.9-31.2v-17h35.3c14.6 0 26.5-11.9 26.5-26.5 0 14.6 11.9 26.5 26.5 26.5h35.3z" style="fill: rgb(253, 215, 173);"></path><path id="Shape_00000098933256687590086990000010969938748460552847_" d="M317.8 137v30.7h-35.3c-14.6 0-26.5-11.9-26.5-26.5v-8.8c20.7-.2 41.4 1.4 61.8 4.6z" style="fill: rgb(36, 53, 68);"></path><path id="Shape_00000055708097151071237560000015862868210505001347_" d="M256 132.4v8.8c0 14.6-11.9 26.5-26.5 26.5h-35.3V137c20.4-3.2 41.1-4.8 61.8-4.6z" style="fill: rgb(36, 53, 68);"></path><circle id="Oval" cx="256" cy="370.8" r="35.3" style="fill: rgb(236, 240, 241);"></circle><path id="Shape_00000126299558766353119980000010841090293493923229_" d="M397.4 166.9c-14.1-10.7-38.8-23.3-79.6-29.9-20.4-3.2-41.1-4.8-61.8-4.6-20.7-.2-41.4 1.4-61.8 4.6-40.9 6.6-65.5 19.2-79.6 29.9.1-.2.1-.4.2-.6C128.7 123.3 175.8 0 256 0s127.3 123.3 141.2 166.3c.1.2.1.5.2.6z" style="fill: rgb(30, 96, 139);"></path></g></g> </svg>