<?xml version="1.0" encoding="utf-8"?>
<svg x="0" y="0"  xmlns="http://www.w3.org/2000/svg" xmlns:xlink="http://www.w3.org/1999/xlink" viewBox="0 0 512 512" class="palindrome-shadow relative z-10 aspect-square  w-[1.17rem]"><path d="M361.9 245.6s79.5 35.3 88.3 70.6c8.8 35.3-26.5 74.5-26.5 74.5-5 30.3-26.5 40.3-26.5 40.3-9.6 23.9-35.3 17.7-35.3 17.7-17.7 8.8-32.5-1.7-44.1-17.7-14.7-20.2-24.8-11.2-36.2-27.2-9.2-12.9-25.6-57.2-25.6-86.4v-71.7h105.9z" style="fill: rgb(95, 245, 254);"></path><path d="M273.7 245.6H362s79.5 35.3 88.3 70.6c8.8 35.3-26.5 74.5-26.5 74.5s-97.2-39.2-150.1-145.1z" style="fill: rgb(146, 255, 255);"></path><path d="M281.6 403.7c-9.2-12.9-25.6-57.2-25.6-86.4v-71.7h17.7c1.1 72.3 44.1 185.4 44.1 185.4-14.7-20.3-24.8-11.2-36.2-27.3z" style="fill: rgb(116, 181, 181);"></path><path d="M483.6 60.2c17.5 0 28.4 8.4 28.4 26.5 0 8.8-3.6 20.9-10.8 35.3-26.5 53-8.8 114.8-35.3 132.4-26.5 17.7-192.3-8.8-192.3-8.8v-17.7c.1 0 68.5-167.7 210-167.7z" style="fill: rgb(95, 245, 254);"></path><path d="M483.6 60.2c17.5 0 28.4 8.4 28.4 26.5 0 3.2-.6 6.9-1.6 10.9-50.6 38.1-145.8 105.5-236.8 148v-17.7c.1 0 68.5-167.7 210-167.7z" style="fill: rgb(29, 221, 221);"></path><path d="M432.6 95.5c-85.3 21.3-133.2 103.3-154.4 150.8-2.9-.4-4.5-.7-4.5-.7v-17.7S342.1 60.2 483.6 60.2c17.5 0 28.4 8.4 28.4 26.5 0 8.7-3.5 20.6-10.5 34.8-15.2-24.1-42.1-32.7-68.9-26z" style="fill: rgb(11, 175, 170);"></path><path d="M150.1 245.6s-79.5 35.3-88.3 70.6 26.5 74.5 26.5 74.5c5 30.3 26.5 40.3 26.5 40.3 9.6 23.9 35.3 17.7 35.3 17.7 17.7 8.8 32.5-1.7 44.1-17.7 14.7-20.2 24.8-11.2 36.2-27.2 9.2-12.9 25.6-57.2 25.6-86.4v-71.7H150.1z" style="fill: rgb(95, 245, 254);"></path><path d="M238.3 245.6H150s-79.5 35.3-88.3 70.6 26.5 74.5 26.5 74.5 97.2-39.2 150.1-145.1z" style="fill: rgb(146, 255, 255);"></path><path d="M230.4 403.7c9.2-12.9 25.6-57.2 25.6-86.4v-71.7h-17.7c-1.1 72.3-44.1 185.4-44.1 185.4 14.7-20.3 24.8-11.2 36.2-27.3z" style="fill: rgb(116, 181, 181);"></path><path d="M256 214.7c-2.1 0-3.9-1.5-4.3-3.6-8.5-42.3-33.8-68.1-34.1-68.4-1.7-1.7-1.7-4.5 0-6.2 1.7-1.7 4.5-1.7 6.2 0 1 1 21.1 21.4 32.2 56.2 11.1-34.8 31.2-55.2 32.2-56.2 1.7-1.7 4.5-1.7 6.2 0 1.7 1.7 1.7 4.5 0 6.2-.2.3-25.7 26.2-34.1 68.4-.4 2.1-2.2 3.6-4.3 3.6z" style="fill: rgb(144, 132, 144);"></path><path d="M28.4 60.2C10.9 60.2 0 68.6 0 86.7c0 8.8 3.6 20.9 10.8 35.3 26.5 53 8.8 114.8 35.3 132.4s192.3-8.8 192.3-8.8v-17.7c-.1 0-68.5-167.7-210-167.7z" style="fill: rgb(95, 245, 254);"></path><path d="M28.4 60.2C10.9 60.2 0 68.6 0 86.7c0 3.2.6 6.9 1.6 10.9 50.6 38.1 145.8 105.5 236.8 148v-17.7c-.1 0-68.5-167.7-210-167.7z" style="fill: rgb(29, 221, 221);"></path><path d="M79.4 95.5c85.3 21.3 133.2 103.3 154.4 150.8 2.9-.4 4.5-.7 4.5-.7v-17.7S169.9 60.2 28.4 60.2C10.9 60.2 0 68.6 0 86.7c0 8.7 3.5 20.6 10.5 34.8 15.2-24.1 42.1-32.7 68.9-26z" style="fill: rgb(11, 175, 170);"></path><path d="M256 280.9c-9.8 0-17.7-7.9-17.7-17.7v-35.3c0-9.8 7.9-17.7 17.7-17.7 9.8 0 17.7 7.9 17.7 17.7v35.3c-.1 9.8-8 17.7-17.7 17.7z" style="fill: rgb(70, 107, 107);"></path><path d="M256 227.9c-4.9 0-8.8-4-8.8-8.8v-8.8c0-4.9 4-8.8 8.8-8.8 4.9 0 8.8 4 8.8 8.8v8.8c0 4.9-3.9 8.8-8.8 8.8z" style="fill: rgb(44, 71, 69);"></path> </svg>